<?xml version="1.0" encoding="utf-8"?>
<!-- Generator: Adobe Illustrator 19.2.1, SVG Export Plug-In . SVG Version: 6.00 Build 0)  -->
<svg version="1.1" id="Layer_1" xmlns="http://www.w3.org/2000/svg" xmlns:xlink="http://www.w3.org/1999/xlink" x="0px" y="0px"
	 viewBox="0 0 125 75" style="enable-background:new 0 0 125 75;" xml:space="preserve">
<g>
	<path d="M63,35.3c0.9,0,1.7-0.4,2.3-1.2v1h2.2V24.2h-2.2v3.9c-0.6-0.7-1.4-1-2.3-1c-1,0-1.8,0.4-2.5,1.1c-0.7,0.8-1.1,1.7-1.1,2.9
		c0,1.2,0.4,2.2,1.1,3C61.3,34.9,62.1,35.3,63,35.3z M62.2,29.6c0.4-0.4,0.8-0.6,1.3-0.6c0.5,0,1,0.2,1.3,0.6c0.4,0.4,0.5,1,0.5,1.6
		c0,0.6-0.2,1.2-0.5,1.6c-0.4,0.4-0.8,0.6-1.3,0.6c-0.5,0-1-0.2-1.3-0.6c-0.4-0.4-0.6-0.9-0.6-1.6C61.6,30.6,61.8,30,62.2,29.6z"/>
	<path d="M73.3,35.3c1.2,0,2.2-0.4,3-1.2c0.8-0.8,1.2-1.8,1.2-2.9c0-1.1-0.4-2.1-1.2-2.9c-0.8-0.8-1.8-1.2-3-1.2
		c-1.2,0-2.2,0.4-3,1.2c-0.8,0.8-1.2,1.8-1.2,2.9c0,1.1,0.4,2.1,1.2,2.9C71.1,34.9,72.1,35.3,73.3,35.3z M71.9,29.6
		c0.4-0.4,0.8-0.6,1.4-0.6c0.6,0,1,0.2,1.4,0.6c0.4,0.4,0.5,0.9,0.5,1.6c0,0.6-0.2,1.2-0.5,1.6c-0.4,0.4-0.8,0.6-1.4,0.6
		c-0.6,0-1-0.2-1.4-0.6c-0.4-0.4-0.5-0.9-0.5-1.6C71.4,30.5,71.6,30,71.9,29.6z"/>
	<rect x="79.1" y="27.2" width="2.2" height="7.9"/>
	<path d="M80.2,26.6c0.4,0,0.7-0.1,0.9-0.4c0.2-0.3,0.4-0.6,0.4-0.9c0-0.4-0.1-0.7-0.4-0.9c-0.2-0.3-0.6-0.4-0.9-0.4
		c-0.4,0-0.7,0.1-0.9,0.4c-0.2,0.3-0.4,0.6-0.4,0.9c0,0.4,0.1,0.7,0.4,0.9C79.6,26.5,79.9,26.6,80.2,26.6z"/>
	<path d="M85.6,30.7c0-0.6,0.2-1.1,0.5-1.4c0.3-0.3,0.7-0.5,1.1-0.5c0.9,0,1.3,0.6,1.3,1.8v4.5h2.2v-4.8c0-1-0.3-1.8-0.8-2.4
		c-0.6-0.6-1.3-0.9-2.1-0.9c-0.8,0-1.6,0.3-2.2,1v-0.9h-2.2v7.9h2.2V30.7z"/>
	<path d="M96,35c1,0,1.9-0.4,2.6-1.2c0,0.9-0.2,1.5-0.7,1.9c-0.5,0.4-1.1,0.6-1.9,0.6s-1.6-0.3-2.3-0.8l-0.8,1.7
		c0.5,0.4,1,0.6,1.6,0.8c0.6,0.2,1.2,0.3,1.8,0.3c1.1,0,2.1-0.3,2.9-1c0.4-0.3,0.7-0.7,1-1.3c0.2-0.6,0.4-1.2,0.4-1.9v-6.9h-2.2v1
		c-0.6-0.8-1.4-1.2-2.3-1.2c-0.9,0-1.8,0.4-2.5,1.1c-0.7,0.8-1.1,1.7-1.1,2.9c0,1.2,0.4,2.1,1.1,2.8C94.1,34.6,95,35,96,35z
		 M95.1,29.5c0.4-0.4,0.8-0.5,1.3-0.5c0.5,0,1,0.2,1.3,0.5c0.4,0.4,0.5,0.9,0.5,1.5c0,0.6-0.2,1.1-0.5,1.5c-0.4,0.4-0.8,0.6-1.3,0.6
		c-0.5,0-1-0.2-1.3-0.6c-0.4-0.4-0.5-0.9-0.5-1.5C94.6,30.4,94.7,29.9,95.1,29.5z"/>
	<rect x="106.4" y="27.2" width="2.2" height="7.9"/>
	<path d="M107.5,26.6c0.4,0,0.7-0.1,0.9-0.4c0.2-0.3,0.4-0.6,0.4-0.9c0-0.4-0.1-0.7-0.4-0.9c-0.2-0.3-0.6-0.4-0.9-0.4
		c-0.4,0-0.7,0.1-0.9,0.4c-0.2,0.3-0.4,0.6-0.4,0.9c0,0.4,0.1,0.7,0.4,0.9C106.8,26.5,107.1,26.6,107.5,26.6z"/>
	<path d="M111.1,32.5c0,0.9,0.3,1.5,0.8,2c0.5,0.5,1.2,0.8,1.9,0.8c0.8,0,1.5-0.3,2.2-0.9l-0.8-1.5c-0.3,0.4-0.6,0.6-1,0.6
		c-0.2,0-0.4-0.1-0.6-0.3c-0.2-0.2-0.2-0.4-0.2-0.7v-3.5h1.9v-1.6h-1.9v-2.4h-2.2v2.4h-0.9v1.6h0.9V32.5z"/>
	<path d="M60.3,48.5c0,0.9,0.3,1.5,0.8,2c0.5,0.5,1.2,0.8,1.9,0.8c0.8,0,1.5-0.3,2.2-0.9l-0.8-1.5c-0.3,0.4-0.6,0.6-1,0.6
		c-0.2,0-0.4-0.1-0.6-0.3c-0.2-0.2-0.2-0.4-0.2-0.7v-3.5h1.9v-1.6h-1.9v-2.4h-2.2v2.4h-0.9v1.6h0.9V48.5z"/>
	<path d="M72.9,50.1c0.8-0.8,1.2-1.8,1.2-2.9c0-1.1-0.4-2.1-1.2-2.9c-0.8-0.8-1.8-1.2-3-1.2c-1.2,0-2.2,0.4-3,1.2
		c-0.8,0.8-1.2,1.8-1.2,2.9c0,1.1,0.4,2.1,1.2,2.9c0.8,0.8,1.8,1.2,3,1.2C71.1,51.3,72.1,50.9,72.9,50.1z M68,47.2
		c0-0.6,0.2-1.2,0.5-1.6c0.4-0.4,0.8-0.6,1.4-0.6c0.6,0,1,0.2,1.4,0.6c0.4,0.4,0.5,0.9,0.5,1.6c0,0.6-0.2,1.2-0.5,1.6
		c-0.4,0.4-0.8,0.6-1.4,0.6c-0.6,0-1-0.2-1.4-0.6C68.2,48.4,68,47.9,68,47.2z"/>
	<path d="M83.1,52c0.2-0.5,0.4-1.2,0.4-1.9v-6.9h-2.2v1c-0.6-0.8-1.4-1.2-2.3-1.2c-0.9,0-1.8,0.4-2.5,1.1c-0.7,0.8-1.1,1.7-1.1,2.9
		c0,1.2,0.4,2.1,1.1,2.8c0.7,0.7,1.6,1.1,2.6,1.1c1,0,1.9-0.4,2.6-1.2c0,0.9-0.2,1.5-0.7,1.9c-0.5,0.4-1.1,0.6-1.9,0.6
		s-1.6-0.3-2.3-0.8l-0.8,1.7c0.5,0.4,1,0.6,1.6,0.8c0.6,0.2,1.2,0.3,1.8,0.3c1.1,0,2.1-0.3,2.9-1C82.5,53,82.8,52.6,83.1,52z
		 M80.7,48.6c-0.4,0.4-0.8,0.6-1.3,0.6c-0.5,0-1-0.2-1.3-0.6c-0.4-0.4-0.5-0.9-0.5-1.5c0-0.6,0.2-1.1,0.6-1.5
		c0.4-0.4,0.8-0.5,1.3-0.5c0.5,0,1,0.2,1.3,0.5c0.4,0.4,0.5,0.9,0.5,1.5C81.3,47.7,81.1,48.2,80.7,48.6z"/>
	<path d="M91.1,48.7c-0.5,0.5-1.1,0.8-1.9,0.8c-0.5,0-0.9-0.1-1.3-0.4c-0.4-0.3-0.6-0.6-0.7-1.1H93v-1.2c0-1.1-0.4-2.1-1.1-2.7
		c-0.8-0.7-1.7-1-2.8-1c-1.1,0-2,0.4-2.8,1.1c-0.8,0.7-1.2,1.7-1.2,3c0,1.2,0.4,2.2,1.2,3c0.8,0.7,1.8,1.1,3,1.1
		c1.2,0,2.2-0.4,3.1-1.3L91.1,48.7z M87.9,45.3c0.4-0.3,0.8-0.4,1.2-0.4s0.8,0.1,1.1,0.4c0.3,0.3,0.5,0.6,0.5,1.1h-3.5
		C87.4,46,87.6,45.6,87.9,45.3z"/>
	<path d="M98.9,48.8c-0.3,0.4-0.6,0.6-1,0.6c-0.2,0-0.4-0.1-0.6-0.3c-0.2-0.2-0.2-0.4-0.2-0.7v-3.5H99v-1.6h-1.9v-2.4h-2.2v2.4H94
		v1.6h0.9v3.7c0,0.9,0.3,1.5,0.8,2c0.5,0.5,1.2,0.8,1.9,0.8c0.8,0,1.5-0.3,2.2-0.9L98.9,48.8z"/>
	<path d="M108.3,51.2v-4.8c0-1-0.3-1.8-0.8-2.4c-0.6-0.6-1.3-0.9-2.1-0.9c-0.8,0-1.6,0.3-2.2,1v-3.9h-2.2v10.9h2.2v-4.3
		c0-0.6,0.2-1.1,0.5-1.4c0.3-0.3,0.7-0.5,1.2-0.5c0.9,0,1.3,0.6,1.3,1.8v4.3H108.3z"/>
	<path d="M113.9,43.1c-1.1,0-2,0.4-2.8,1.1c-0.8,0.7-1.2,1.7-1.2,3c0,1.2,0.4,2.2,1.2,3c0.8,0.7,1.8,1.1,3,1.1
		c1.2,0,2.2-0.4,3.1-1.3l-1.2-1.3c-0.5,0.5-1.1,0.8-1.9,0.8c-0.5,0-0.9-0.1-1.3-0.4c-0.4-0.3-0.6-0.6-0.7-1.1h5.7v-1.2
		c0-1.1-0.4-2.1-1.1-2.7C115.9,43.5,114.9,43.1,113.9,43.1z M112.1,46.4c0.1-0.5,0.3-0.8,0.6-1.1c0.4-0.3,0.8-0.4,1.2-0.4
		c0.4,0,0.8,0.1,1.1,0.4c0.3,0.3,0.5,0.6,0.5,1.1H112.1z"/>
	<path d="M123.9,43.1c-0.4,0-0.9,0.1-1.3,0.4c-0.4,0.2-0.8,0.5-1.1,0.8v-1h-2.2v7.9h2.2v-3.4c0-0.8,0.2-1.4,0.5-1.8
		c0.3-0.5,0.8-0.7,1.5-0.7h0.4L123.9,43.1z"/>
	<path d="M65,63.1c-0.3-0.2-0.5-0.3-0.8-0.4c-0.2-0.1-0.6-0.2-1.1-0.4c-0.5-0.2-0.9-0.3-1.1-0.4c-0.2-0.1-0.3-0.3-0.3-0.5
		c0-0.4,0.3-0.6,1-0.6c0.7,0,1.4,0.2,2,0.7l0.8-1.5c-0.9-0.6-1.9-0.9-2.8-0.9c-0.9,0-1.7,0.2-2.3,0.7c-0.6,0.5-0.9,1.1-0.9,1.8
		c0,0.7,0.3,1.3,0.9,1.7c0.3,0.2,0.6,0.3,0.8,0.4c0.2,0.1,0.6,0.2,1,0.4c0.4,0.1,0.8,0.3,1,0.4c0.2,0.2,0.3,0.3,0.3,0.5
		c0,0.2-0.1,0.3-0.2,0.4c-0.2,0.1-0.4,0.2-0.7,0.2c-0.9,0-1.8-0.3-2.6-1l-1,1.4c0.5,0.4,1.1,0.7,1.7,0.9c0.6,0.2,1.2,0.3,1.8,0.3
		c0.9,0,1.6-0.2,2.2-0.7c0.6-0.5,0.9-1.1,0.9-1.9C65.8,64,65.5,63.4,65,63.1z"/>
	<path d="M71.3,65.4c-0.6,0-1-0.2-1.5-0.6c-0.4-0.4-0.6-0.9-0.6-1.6c0-0.7,0.2-1.2,0.6-1.6c0.4-0.4,0.9-0.6,1.5-0.6
		c0.4,0,0.7,0.1,1.1,0.3c0.4,0.2,0.7,0.4,0.9,0.7l1.1-1.5c-0.4-0.5-0.9-0.8-1.5-1c-0.6-0.2-1.2-0.4-1.7-0.4c-1.1,0-2.1,0.4-2.9,1.1
		c-0.8,0.8-1.2,1.7-1.2,3c0,1.2,0.4,2.2,1.2,2.9c0.8,0.8,1.8,1.1,3,1.1c1.2,0,2.3-0.5,3.3-1.6l-1.3-1.5C72.7,65,72,65.4,71.3,65.4z"
		/>
	<rect x="76" y="59.3" width="2.2" height="7.9"/>
	<path d="M77.1,56.1c-0.4,0-0.7,0.1-0.9,0.4c-0.2,0.3-0.4,0.6-0.4,0.9c0,0.4,0.1,0.7,0.4,0.9c0.2,0.3,0.6,0.4,0.9,0.4
		c0.4,0,0.7-0.1,0.9-0.4c0.2-0.3,0.4-0.6,0.4-0.9c0-0.4-0.1-0.7-0.4-0.9C77.8,56.2,77.5,56.1,77.1,56.1z"/>
	<path d="M83.9,59.2c-1.1,0-2,0.4-2.8,1.1c-0.8,0.7-1.2,1.7-1.2,3c0,1.2,0.4,2.2,1.2,3c0.8,0.7,1.8,1.1,3,1.1c1.2,0,2.2-0.4,3.1-1.3
		l-1.2-1.3c-0.5,0.5-1.1,0.8-1.9,0.8c-0.5,0-0.9-0.1-1.3-0.4c-0.4-0.3-0.6-0.6-0.7-1.1h5.7v-1.2c0-1.1-0.4-2.1-1.1-2.7
		C85.9,59.5,84.9,59.2,83.9,59.2z M82.1,62.5c0.1-0.5,0.3-0.8,0.6-1.1c0.4-0.3,0.8-0.4,1.2-0.4c0.4,0,0.8,0.1,1.1,0.4
		c0.3,0.3,0.5,0.6,0.5,1.1H82.1z"/>
	<path d="M93.8,59.2c-0.8,0-1.6,0.3-2.2,1v-0.9h-2.2v7.9h2.2v-4.4c0-0.6,0.2-1.1,0.5-1.4c0.3-0.3,0.7-0.5,1.2-0.5
		c0.9,0,1.3,0.6,1.3,1.8v4.5h2.2v-4.8c0-1-0.3-1.8-0.8-2.4C95.3,59.4,94.6,59.2,93.8,59.2z"/>
	<path d="M102.5,65.4c-0.6,0-1-0.2-1.5-0.6c-0.4-0.4-0.6-0.9-0.6-1.6c0-0.7,0.2-1.2,0.6-1.6c0.4-0.4,0.9-0.6,1.5-0.6
		c0.4,0,0.7,0.1,1.1,0.3c0.4,0.2,0.7,0.4,0.9,0.7l1.1-1.5c-0.4-0.5-0.9-0.8-1.5-1c-0.6-0.2-1.2-0.4-1.7-0.4c-1.1,0-2.1,0.4-2.9,1.1
		c-0.8,0.8-1.2,1.7-1.2,3c0,1.2,0.4,2.2,1.2,2.9c0.8,0.8,1.8,1.1,3,1.1c1.2,0,2.3-0.5,3.3-1.6l-1.3-1.5
		C103.9,65,103.2,65.4,102.5,65.4z"/>
	<path d="M110.8,59.2c-1.1,0-2,0.4-2.8,1.1c-0.8,0.7-1.2,1.7-1.2,3c0,1.2,0.4,2.2,1.2,3c0.8,0.7,1.8,1.1,3,1.1
		c1.2,0,2.2-0.4,3.1-1.3l-1.2-1.3c-0.5,0.5-1.1,0.8-1.9,0.8c-0.5,0-0.9-0.1-1.3-0.4c-0.4-0.3-0.6-0.6-0.7-1.1h5.7v-1.2
		c0-1.1-0.4-2.1-1.1-2.7C112.8,59.5,111.9,59.2,110.8,59.2z M109,62.5c0.1-0.5,0.3-0.8,0.6-1.1c0.4-0.3,0.8-0.4,1.2-0.4
		c0.4,0,0.8,0.1,1.1,0.4c0.3,0.3,0.5,0.6,0.5,1.1H109z"/>
	<path d="M49.3,7.2c0-0.9-0.7-1.5-1.5-1.5c-0.6,0-1.1,0.4-1.4,0.9L34.2,2.5c0-0.1,0-0.2,0-0.3c0-0.9-0.7-1.5-1.5-1.5
		c-0.9,0-1.5,0.7-1.5,1.5c0,0.1,0,0.2,0,0.3L19.1,6.6c-0.3-0.5-0.8-0.9-1.4-0.9c-0.9,0-1.5,0.7-1.5,1.5c0,0.8,0.6,1.4,1.3,1.5v7.1
		c-0.8,0.1-1.3,0.7-1.3,1.5c0,0.1,0,0.2,0,0.3L4,21.7c-0.3-0.5-0.8-0.9-1.4-0.9c-0.9,0-1.5,0.7-1.5,1.5c0,0.8,0.6,1.4,1.3,1.5V41
		c-0.8,0.1-1.3,0.7-1.3,1.5c0,0.8,0.6,1.4,1.3,1.5v17.2c-0.8,0.1-1.3,0.7-1.3,1.5c0,0.9,0.7,1.5,1.5,1.5c0.6,0,1.2-0.4,1.4-0.9
		l12.1,4.1c0,0.1,0,0.2,0,0.3c0,0.9,0.7,1.5,1.5,1.5c0.6,0,1.1-0.3,1.4-0.8l12.2,4.1c0,0.1,0,0.2,0,0.3c0,0.9,0.7,1.5,1.5,1.5
		c0.9,0,1.5-0.7,1.5-1.5c0-0.1,0-0.2,0-0.3l12.2-4.1c0.3,0.5,0.8,0.8,1.4,0.8c0.9,0,1.5-0.7,1.5-1.5c0-0.8-0.6-1.4-1.3-1.5V49
		c0.7-0.1,1.3-0.7,1.3-1.5c0-0.8-0.6-1.4-1.3-1.5V28.9c0.7-0.1,1.3-0.7,1.3-1.5c0-0.8-0.6-1.4-1.3-1.5V8.8C48.7,8.7,49.3,8,49.3,7.2
		z M46.4,67.1L34.2,63c0-0.1,0-0.2,0-0.3c0-0.8-0.6-1.4-1.3-1.5v-7.1c0.7-0.1,1.3-0.8,1.3-1.5c0-0.1,0-0.1,0-0.2l12.2-4.1
		c0.2,0.4,0.6,0.7,1.1,0.8v17.2C47,66.3,46.6,66.6,46.4,67.1z M2.9,61.2V44.1C3.4,44,3.8,43.7,4,43.2l12.2,4.1c0,0.1,0,0.1,0,0.2
		c0,0.8,0.6,1.4,1.3,1.5v7.1c-0.8,0.1-1.3,0.7-1.3,1.5c0,0.1,0,0.2,0,0.2L4,62C3.8,61.6,3.4,61.3,2.9,61.2z M4,23.1l12.1,4.1
		c0,0.1,0,0.2,0,0.2c0,0.8,0.6,1.4,1.3,1.5V36c-0.8,0.1-1.3,0.7-1.3,1.5c0,0.1,0,0.2,0,0.3L4,41.9c-0.2-0.4-0.6-0.8-1.1-0.8V23.9
		C3.4,23.8,3.8,23.5,4,23.1z M19.1,7.9L31.2,12c0,0.1,0,0.2,0,0.3c0,0.8,0.6,1.4,1.3,1.5v7c-0.5,0.1-1,0.4-1.2,0.9l-12.1-4.1
		c0-0.1,0-0.2,0-0.2c0-0.8-0.6-1.4-1.3-1.5V8.8C18.4,8.7,18.8,8.4,19.1,7.9z M17.9,25.8v-7c0.5-0.1,0.9-0.4,1.2-0.9l12.1,4.1
		c0,0.1,0,0.2,0,0.2c0,0.1,0,0.2,0,0.3l-12.1,4.1C18.9,26.3,18.4,25.9,17.9,25.8z M46.3,27.7l-12.1,4.1c-0.2-0.5-0.6-0.8-1.2-0.9v-7
		c0.5-0.1,0.9-0.4,1.1-0.8l12.2,4.1c0,0.1,0,0.1,0,0.2C46.2,27.5,46.2,27.6,46.3,27.7z M46.3,47.9l-12.1,4.1
		c-0.2-0.5-0.6-0.8-1.2-0.9v-7c0.5-0.1,0.9-0.4,1.1-0.8l12.2,4.1c0,0.1,0,0.1,0,0.2C46.2,47.6,46.2,47.7,46.3,47.9z M17.9,56.2V49
		c0.5-0.1,0.9-0.4,1.1-0.8l12.2,4.1c0,0.1,0,0.1,0,0.2c0,0.8,0.6,1.4,1.3,1.5v7.1c-0.5,0.1-0.9,0.4-1.2,0.8L19.2,58
		c0-0.1,0-0.2,0-0.2C19.2,56.9,18.7,56.3,17.9,56.2z M4.2,42.3l12.2-4.1c0.2,0.4,0.6,0.8,1.2,0.8v7c-0.5,0.1-1,0.4-1.2,0.9L4.2,42.8
		c0-0.1,0-0.2,0-0.3C4.2,42.5,4.2,42.4,4.2,42.3z M32.5,30.9c-0.5,0.1-1,0.4-1.2,0.9l-12.1-4.1c0-0.1,0-0.2,0-0.3c0-0.1,0-0.1,0-0.2
		l12.2-4.1c0.2,0.4,0.6,0.7,1.1,0.8V30.9z M32.5,51c-0.5,0.1-1,0.4-1.2,0.9l-12.1-4.1c0-0.1,0-0.2,0-0.3c0-0.1,0-0.1,0-0.2l12.2-4.1
		c0.2,0.4,0.6,0.7,1.1,0.8V51z M31.2,42.8l-12.1,4.1c-0.2-0.5-0.6-0.8-1.2-0.9v-7c0.5-0.1,0.9-0.4,1.1-0.8l12.2,4.1
		c0,0.1,0,0.1,0,0.2C31.2,42.6,31.2,42.7,31.2,42.8z M31.3,41.8l-12.1-4.1c0-0.1,0-0.2,0-0.3c0-0.8-0.6-1.4-1.3-1.5v-7.1
		c0.5-0.1,0.9-0.4,1.1-0.8l12.2,4.1c0,0.1,0,0.2,0,0.2c0,0.8,0.6,1.4,1.3,1.5v7C32,41,31.5,41.4,31.3,41.8z M17.9,66.2v-7
		c0.5-0.1,0.9-0.4,1.2-0.9l12.1,4.1c0,0.1,0,0.2,0,0.3c0,0.1,0,0.2,0,0.3l-12.1,4.1C18.9,66.6,18.4,66.3,17.9,66.2z M46.4,46.9
		l-12.1-4.1c0-0.1,0-0.2,0-0.3c0-0.8-0.6-1.4-1.3-1.5v-7c0.7-0.1,1.3-0.8,1.3-1.5c0-0.1,0-0.2,0-0.2l12.2-4.1
		c0.2,0.4,0.6,0.7,1.1,0.8V46C47,46.1,46.6,46.4,46.4,46.9z M46.4,26.7l-12.1-4.1c0-0.1,0-0.2,0-0.3c0-0.8-0.6-1.4-1.3-1.5v-7
		c0.7-0.1,1.3-0.7,1.3-1.5c0-0.1,0-0.2,0-0.3l12.2-4.1c0.2,0.4,0.6,0.8,1.2,0.8v17.1C47,25.9,46.6,26.3,46.4,26.7z M46.3,7
		c0,0.1,0,0.2,0,0.3c0,0.1,0,0.2,0,0.3l-12.2,4.1c-0.2-0.4-0.6-0.8-1.2-0.8v-7c0.5-0.1,0.9-0.4,1.2-0.8L46.3,7z M31.4,2.9
		c0.2,0.4,0.6,0.8,1.2,0.8v7c-0.5,0.1-0.9,0.4-1.2,0.8L19.2,7.5c0-0.1,0-0.2,0-0.3c0-0.1,0-0.2,0-0.3L31.4,2.9z M16.3,18
		c0.2,0.5,0.7,0.8,1.2,0.9v7c-0.5,0.1-1,0.4-1.2,0.9L4.2,22.7c0-0.1,0-0.2,0-0.3c0-0.1,0-0.2,0-0.3L16.3,18z M4.2,63
		c0-0.1,0-0.1,0-0.2c0-0.1,0-0.2,0-0.3l12.1-4.1c0.2,0.5,0.7,0.8,1.2,0.9v7c-0.5,0.1-0.9,0.4-1.2,0.8L4.2,63z M19.2,68
		c0-0.1,0-0.2,0-0.3c0-0.1,0-0.2,0-0.3l12.2-4.1c0.2,0.4,0.6,0.7,1.2,0.8v7c-0.5,0.1-0.9,0.4-1.2,0.8L19.2,68z M34.1,72.1
		c-0.2-0.4-0.6-0.8-1.2-0.8v-7c0.5-0.1,0.9-0.4,1.1-0.8l12.2,4.1c0,0.1,0,0.2,0,0.3c0,0.1,0,0.2,0,0.3L34.1,72.1z"/>
</g>
</svg>
