<svg xmlns="http://www.w3.org/2000/svg" xmlns:xlink="http://www.w3.org/1999/xlink" viewBox="0 0 586.5 396"><style>.st0{fill:none;stroke:#000000;stroke-width:2.5;stroke-miterlimit:10;}</style><symbol id="ball" viewBox="-7 -7 14 14"><circle r="7"/></symbol><g id="letters"><path d="M358.2 167c0 5.2-1.8 9.6-5.4 13.1s-8.1 5.3-13.5 5.3-9.9-1.8-13.5-5.3-5.4-7.9-5.4-13.1 1.8-9.6 5.4-13.1c3.6-3.6 8.1-5.4 13.5-5.4s9.9 1.8 13.5 5.4c3.6 3.5 5.4 7.9 5.4 13.1zm-27.8 0c0 2.9.8 5.3 2.5 7.2 1.7 1.8 3.8 2.8 6.4 2.8s4.7-.9 6.4-2.8c1.7-1.8 2.5-4.2 2.5-7.2s-.8-5.3-2.5-7.2-3.8-2.8-6.4-2.8-4.7.9-6.4 2.8c-1.7 1.9-2.5 4.3-2.5 7.2zM366.4 144.6c-1.1-1.1-1.7-2.5-1.7-4.2 0-1.6.6-3 1.7-4.2s2.5-1.7 4.2-1.7c1.6 0 3 .6 4.2 1.7s1.7 2.5 1.7 4.2c0 1.6-.6 3-1.7 4.2s-2.5 1.7-4.2 1.7c-1.7 0-3-.6-4.2-1.7zm9.2 40.3h-10v-35.8h10v35.8zM395 164.9v20h-10v-35.8h10v4c3-3.1 6.4-4.6 10.2-4.6 3.8 0 6.9 1.3 9.5 4 2.6 2.7 3.8 6.2 3.8 10.6v21.8h-10v-20.2c0-5.5-2-8.2-6.1-8.2-2 0-3.7.7-5.2 2.2-1.5 1.3-2.2 3.5-2.2 6.2zM454 178.9c-3.1 3.5-7.1 5.3-11.7 5.3s-8.6-1.6-11.8-4.8c-3.2-3.2-4.8-7.4-4.8-12.7 0-5.3 1.7-9.6 5-13 3.3-3.4 7.1-5.1 11.3-5.1 4.3 0 7.8 1.8 10.6 5.3V149h10v31.2c0 3.2-.6 6-1.7 8.5s-2.6 4.4-4.5 5.9c-3.7 2.9-8 4.4-13 4.4-2.7 0-5.4-.4-8.2-1.3-2.8-.9-5.2-2.1-7.3-3.7l3.9-7.5c3.3 2.5 6.8 3.7 10.4 3.7s6.6-.9 8.7-2.7c2-1.8 3.1-4.7 3.1-8.6zm-1.4-12.7c0-2.9-.8-5.1-2.4-6.8-1.6-1.6-3.6-2.5-5.9-2.5-2.4 0-4.4.8-6.1 2.5-1.7 1.6-2.6 3.9-2.6 6.7 0 2.8.8 5.1 2.5 6.9 1.7 1.8 3.7 2.6 6.1 2.6s4.4-.9 6-2.6 2.4-3.9 2.4-6.8zM520.8 156.3v16c0 1.4.4 2.5 1.1 3.2.7.8 1.6 1.2 2.5 1.2 1.9 0 3.4-.8 4.7-2.5l3.7 7c-3.1 2.8-6.4 4.3-9.8 4.3-3.4 0-6.3-1.1-8.7-3.4-2.4-2.3-3.6-5.3-3.6-9.2v-16.5h-4.2v-7.2h4.2v-10.7h10v10.7h8.6v7.2h-8.5zM376.6 251.3c-3.1 3.5-7.1 5.3-11.7 5.3s-8.6-1.6-11.8-4.8c-3.2-3.2-4.8-7.4-4.8-12.7 0-5.3 1.7-9.6 5-13 3.3-3.4 7.1-5.1 11.3-5.1 4.3 0 7.8 1.8 10.6 5.3v-4.7h10v31.2c0 3.2-.6 6-1.7 8.5s-2.6 4.4-4.5 5.9c-3.7 2.9-8 4.4-13 4.4-2.7 0-5.4-.4-8.2-1.3-2.8-.9-5.2-2.1-7.3-3.7l3.9-7.5c3.3 2.5 6.8 3.7 10.4 3.7s6.6-.9 8.7-2.7c2.1-2 3.1-4.9 3.1-8.8zm-1.4-12.7c0-2.9-.8-5.1-2.4-6.8-1.6-1.6-3.6-2.5-5.9-2.5-2.4 0-4.4.8-6.1 2.5-1.7 1.6-2.6 3.9-2.6 6.7 0 2.8.8 5.1 2.5 6.9 1.7 1.8 3.7 2.6 6.1 2.6s4.4-.9 6-2.6 2.4-3.9 2.4-6.8zM425.5 252.1c-4 3.8-8.8 5.7-14.2 5.7-5.4 0-9.9-1.7-13.5-5-3.5-3.3-5.3-7.8-5.3-13.5 0-5.6 1.8-10.1 5.4-13.4 3.6-3.3 7.9-5 12.8-5s9.1 1.5 12.5 4.5c3.4 3 5.2 7.1 5.2 12.2v5.3h-26.1c.3 2 1.3 3.5 3.1 4.8 1.7 1.2 3.7 1.9 5.9 1.9 3.5 0 6.4-1.2 8.6-3.5l5.6 6zm-9.5-21.2c-1.4-1.2-3-1.7-5-1.7s-3.8.6-5.4 1.8c-1.6 1.2-2.6 2.8-2.9 4.9h15.7c-.3-2.2-1.1-3.8-2.4-5zM447.2 228.7v16c0 1.4.4 2.5 1.1 3.2.7.8 1.6 1.2 2.5 1.2 1.9 0 3.4-.8 4.7-2.5l3.7 7c-3.1 2.8-6.4 4.3-9.8 4.3-3.4 0-6.3-1.1-8.7-3.4-2.4-2.3-3.6-5.3-3.6-9.2v-16.5h-4.2v-7.2h4.2v-10.7h10v10.7h8.6v7.2h-8.5zM474.5 238v19.3h-10v-49.4h10v17.6c3-3.1 6.4-4.6 10.1-4.6 3.7 0 6.9 1.3 9.5 4 2.6 2.7 3.9 6.2 3.9 10.6v21.8h-10v-19.6c0-5.5-2-8.2-6.1-8.2-2 0-3.7.7-5.2 2.2-1.5 1.4-2.2 3.5-2.2 6.3zM538 252.1c-4 3.8-8.8 5.7-14.2 5.7-5.4 0-9.9-1.7-13.5-5-3.5-3.3-5.3-7.8-5.3-13.5 0-5.6 1.8-10.1 5.4-13.4 3.6-3.3 7.9-5 12.8-5s9.1 1.5 12.5 4.5c3.4 3 5.2 7.1 5.2 12.2v5.3h-26.1c.3 2 1.3 3.5 3.1 4.8 1.7 1.2 3.7 1.9 5.9 1.9 3.5 0 6.4-1.2 8.6-3.5l5.6 6zm-9.5-21.2c-1.4-1.2-3-1.7-5-1.7s-3.8.6-5.4 1.8c-1.6 1.2-2.6 2.8-2.9 4.9h15.7c-.3-2.2-1.1-3.8-2.4-5zM567 230.3c-3 0-5.2 1.1-6.7 3.2s-2.2 4.9-2.2 8.4v15.5h-10v-35.8h10v4.7c1.3-1.5 2.9-2.7 4.8-3.7s3.9-1.6 5.9-1.6l.1 9.4H567zM329.9 321.4c3.3 0 6.3-1.7 9-5l5.9 6.7c-4.6 4.8-9.6 7.2-15 7.2s-9.9-1.7-13.6-5.1c-3.7-3.4-5.6-7.8-5.6-13.3 0-5.5 1.9-9.9 5.6-13.4 3.7-3.4 8.2-5.2 13.3-5.2 2.6 0 5.2.5 7.8 1.6 2.6 1.1 5 2.6 7 4.7l-5.2 6.8c-1.2-1.4-2.6-2.4-4.2-3.2-1.7-.8-3.3-1.1-5-1.1-2.6 0-4.9.9-6.8 2.6-1.9 1.7-2.8 4.1-2.8 7.1s.9 5.4 2.8 7.1c2 1.7 4.2 2.5 6.8 2.5zM352.3 289.4c-1.1-1.1-1.7-2.5-1.7-4.2 0-1.6.6-3 1.7-4.2s2.5-1.7 4.2-1.7c1.6 0 3 .6 4.2 1.7s1.7 2.5 1.7 4.2c0 1.6-.6 3-1.7 4.2s-2.5 1.7-4.2 1.7c-1.7 0-3.1-.6-4.2-1.7zm9.1 40.3h-10v-35.8h10v35.8zM401.9 324.5c-4 3.8-8.8 5.7-14.2 5.7-5.4 0-9.9-1.7-13.5-5-3.5-3.3-5.3-7.8-5.3-13.5 0-5.6 1.8-10.1 5.4-13.4 3.6-3.3 7.9-5 12.8-5s9.1 1.5 12.5 4.5c3.4 3 5.2 7.1 5.2 12.2v5.3h-26.1c.3 2 1.3 3.5 3.1 4.8 1.7 1.2 3.7 1.9 5.9 1.9 3.5 0 6.4-1.2 8.6-3.5l5.6 6zm-9.6-21.2c-1.4-1.2-3-1.7-5-1.7s-3.8.6-5.4 1.8c-1.6 1.2-2.6 2.8-2.9 4.9h15.7c-.3-2.2-1.1-3.8-2.4-5zM421.9 309.8v20h-10V294h10v4c3-3.1 6.4-4.6 10.2-4.6 3.8 0 6.9 1.3 9.5 4 2.6 2.7 3.8 6.2 3.8 10.6v21.8h-10v-20.2c0-5.5-2-8.2-6.1-8.2-2 0-3.7.7-5.2 2.2-1.4 1.2-2.2 3.4-2.2 6.2zM471.6 321.4c3.3 0 6.3-1.7 9-5l5.9 6.7c-4.6 4.8-9.6 7.2-15 7.2s-9.9-1.7-13.6-5.1c-3.7-3.4-5.6-7.8-5.6-13.3 0-5.5 1.9-9.9 5.6-13.4 3.7-3.4 8.2-5.2 13.3-5.2 2.6 0 5.2.5 7.8 1.6 2.6 1.1 5 2.6 7 4.7l-5.2 6.8c-1.2-1.4-2.6-2.4-4.2-3.2-1.7-.8-3.3-1.1-5-1.1-2.6 0-4.9.9-6.8 2.6-1.9 1.7-2.8 4.1-2.8 7.1s.9 5.4 2.8 7.1c2.1 1.7 4.3 2.5 6.8 2.5zM524.2 324.5c-4 3.8-8.8 5.7-14.2 5.7-5.4 0-9.9-1.7-13.5-5-3.5-3.3-5.3-7.8-5.3-13.5 0-5.6 1.8-10.1 5.4-13.4 3.6-3.3 7.9-5 12.8-5s9.1 1.5 12.5 4.5c3.4 3 5.2 7.1 5.2 12.2v5.3H501c.3 2 1.3 3.5 3.1 4.8 1.7 1.2 3.7 1.9 5.9 1.9 3.5 0 6.4-1.2 8.6-3.5l5.6 6zm-9.6-21.2c-1.4-1.2-3-1.7-5-1.7s-3.8.6-5.4 1.8c-1.6 1.2-2.6 2.8-2.9 4.9H517c-.2-2.2-1-3.8-2.4-5z"/></g><path d="M305 318.6c0 3.5-1.3 6.4-3.9 8.5s-5.9 3.2-9.9 3.2c-2.7 0-5.4-.5-8.3-1.4-2.9-1-5.5-2.4-7.8-4.2l4.4-6.3c3.7 2.9 7.7 4.3 11.9 4.3 1.3 0 2.3-.3 3.1-.8s1.1-1.2 1.1-2-.5-1.6-1.6-2.3c-1-.7-2.6-1.4-4.5-2-2-.6-3.5-1.2-4.5-1.6-1-.4-2.2-1.1-3.6-1.9-2.7-1.7-4.1-4.2-4.1-7.5s1.3-6 4-8.1 6.1-3.1 10.3-3.1c4.2 0 8.4 1.4 12.6 4.3l-3.7 6.7c-3.1-2.1-6.2-3.2-9.3-3.2s-4.6.8-4.6 2.5c0 .9.5 1.7 1.5 2.2 1 .5 2.6 1.2 4.9 1.9 2.3.7 3.9 1.3 4.8 1.6 1 .4 2.1 1 3.4 1.8 2.6 1.3 3.8 3.8 3.8 7.4z" id="s-letter"/><path d="M342.8 239.4c0 5.2-1.8 9.6-5.4 13.1-3.6 3.5-8.1 5.3-13.5 5.3s-9.9-1.8-13.5-5.3c-3.6-3.5-5.4-7.9-5.4-13.1s1.8-9.6 5.4-13.1c3.6-3.6 8.1-5.4 13.5-5.4s9.9 1.8 13.5 5.4c3.6 3.5 5.4 7.9 5.4 13.1zm-27.8 0c0 2.9.8 5.3 2.5 7.2 1.7 1.8 3.8 2.8 6.4 2.8s4.7-.9 6.4-2.8c1.7-1.8 2.5-4.2 2.5-7.2s-.8-5.3-2.5-7.2-3.8-2.8-6.4-2.8-4.7.9-6.4 2.8c-1.7 1.9-2.5 4.3-2.5 7.2z" id="o-letter"/><path d="M290 228.7v16c0 1.4.4 2.5 1.1 3.2.7.8 1.6 1.2 2.5 1.2 1.9 0 3.4-.8 4.7-2.5l3.7 7c-3.1 2.8-6.4 4.3-9.8 4.3-3.4 0-6.3-1.1-8.7-3.4-2.4-2.3-3.6-5.3-3.6-9.2v-16.5h-4.2v-7.2h4.2v-10.7h10v10.7h8.6v7.2H290z" id="t-letter"/><path d="M490.3 144.6c-1.1-1.1-1.7-2.5-1.7-4.2 0-1.6.6-3 1.7-4.2s2.5-1.7 4.2-1.7c1.6 0 3 .6 4.2 1.7s1.7 2.5 1.7 4.2c0 1.6-.6 3-1.7 4.2s-2.5 1.7-4.2 1.7c-1.7 0-3.1-.6-4.2-1.7zm9.2 40.3h-10v-35.8h10v35.8z" id="i-letter"/><path d="M292.4 185.4c-4.2 0-8-1.8-11.3-5.4-3.3-3.6-5-8-5-13.4 0-5.3 1.6-9.7 4.9-13.1 3.2-3.4 7-5.1 11.4-5.1 4.3 0 7.9 1.5 10.6 4.6v-17.6h10v49.4h-10v-4.7c-2.8 3.6-6.3 5.3-10.6 5.3zm-6.2-18.3c0 2.9.9 5.2 2.6 7.1 1.7 1.8 3.7 2.8 6.1 2.8 2.3 0 4.3-.9 5.9-2.8 1.6-1.8 2.4-4.2 2.4-7.1 0-2.9-.8-5.3-2.4-7.3s-3.6-2.9-6-2.9-4.4 1-6.1 2.9c-1.7 2-2.5 4.4-2.5 7.3z" id="d-letter"/><g id="s-symbol"><path class="st0" d="M86.7 241.4l68.4-22.8 68.3 22.8v91.1l-68.3 22.7-68.4-22.7z"/><path class="st0" d="M223.4 241.4l-68.3 22.8-68.4-22.8M86.7 332.5l68.4-22.8 68.3 22.8M155.1 264.1v91.1M87 59.2l68.3-22.8 68.4 22.8v91.1L155.3 173 87 150.3z"/><path class="st0" d="M223.7 59.2L155.3 82 87 59.2M87 150.3l68.3-22.8 68.4 22.8M155.3 81.9V173"/><path class="st0" d="M18.5 127.4l68.3-22.8 68.4 22.8v91.1l-68.4 22.8-68.3-22.8z"/><path class="st0" d="M155.2 127.4l-68.4 22.8-68.3-22.8M18.5 218.5l68.3-22.7 68.4 22.7M86.8 150.2v91.1M18.5 263.8L86.8 241l68.4 22.8v91.1l-68.4 22.8-68.3-22.8z"/><path class="st0" d="M155.2 263.9l-68.4 22.7-68.3-22.7M18.5 355l68.3-22.8 68.4 22.8M86.8 286.6v91.1M18.5 36.3l68.3-22.8 68.4 22.8v91.1l-68.4 22.8-68.3-22.8z"/><path class="st0" d="M155.2 36.3L86.8 59.1 18.5 36.3M18.5 127.4l68.3-22.7 68.4 22.7M86.8 13.5v136.7"/><use xlink:href="#ball" width="14" height="14" x="-7" y="-7" transform="matrix(1 0 0 -1 18.516 36.256)" overflow="visible"/><use xlink:href="#ball" width="14" height="14" x="-7" y="-7" transform="matrix(1 0 0 -1 86.83 59.068)" overflow="visible"/><use xlink:href="#ball" width="14" height="14" x="-7" y="-7" transform="matrix(1 0 0 -1 86.83 13.506)" overflow="visible"/><use xlink:href="#ball" width="14" height="14" x="-7" y="-7" transform="matrix(1 0 0 -1 155.162 36.256)" overflow="visible"/><use xlink:href="#ball" width="14" height="14" x="-7" y="-7" transform="matrix(1 0 0 -1 155.337 81.964)" overflow="visible"/><use xlink:href="#ball" width="14" height="14" x="-7" y="-7" transform="matrix(1 0 0 -1 223.67 59.15)" overflow="visible"/><use xlink:href="#ball" width="14" height="14" x="-7" y="-7" transform="matrix(1 0 0 -1 18.516 127.382)" overflow="visible"/><use xlink:href="#ball" width="14" height="14" x="-7" y="-7" transform="matrix(1 0 0 -1 86.83 150.195)" overflow="visible"/><use xlink:href="#ball" width="14" height="14" x="-7" y="-7" transform="matrix(1 0 0 -1 86.83 104.632)" overflow="visible"/><use xlink:href="#ball" width="14" height="14" x="-7" y="-7" transform="matrix(1 0 0 -1 155.162 127.382)" overflow="visible"/><use xlink:href="#ball" width="14" height="14" x="-7" y="-7" transform="matrix(1 0 0 -1 155.337 173.09)" overflow="visible"/><use xlink:href="#ball" width="14" height="14" x="-7" y="-7" transform="matrix(1 0 0 -1 223.67 150.278)" overflow="visible"/><use xlink:href="#ball" width="14" height="14" x="-7" y="-7" transform="matrix(1 0 0 -1 18.516 218.516)" overflow="visible"/><use xlink:href="#ball" width="14" height="14" x="-7" y="-7" transform="matrix(1 0 0 -1 86.83 241.328)" overflow="visible"/><use xlink:href="#ball" width="14" height="14" x="-7" y="-7" transform="matrix(1 0 0 -1 86.83 195.766)" overflow="visible"/><use xlink:href="#ball" width="14" height="14" x="-7" y="-7" transform="matrix(1 0 0 -1 155.162 218.516)" overflow="visible"/><use xlink:href="#ball" width="14" height="14" x="-7" y="-7" transform="matrix(1 0 0 -1 155.337 264.224)" overflow="visible"/><use xlink:href="#ball" width="14" height="14" x="-7" y="-7" transform="matrix(1 0 0 -1 223.67 241.41)" overflow="visible"/><use xlink:href="#ball" width="14" height="14" x="-7" y="-7" transform="matrix(1 0 0 -1 18.516 354.918)" overflow="visible"/><use xlink:href="#ball" width="14" height="14" x="-7" y="-7" transform="matrix(1 0 0 -1 86.83 377.693)" overflow="visible"/><use xlink:href="#ball" width="14" height="14" x="-7" y="-7" transform="matrix(1 0 0 -1 86.83 286.772)" overflow="visible"/><use xlink:href="#ball" width="14" height="14" x="-7" y="-7" transform="matrix(1 0 0 -1 155.162 309.522)" overflow="visible"/><use xlink:href="#ball" width="14" height="14" x="-7" y="-7" transform="matrix(1 0 0 -1 155.337 355.23)" overflow="visible"/><use xlink:href="#ball" width="14" height="14" x="-7" y="-7" transform="matrix(1 0 0 -1 86.734 332.455)" overflow="visible"/><use xlink:href="#ball" width="14" height="14" x="-7" y="-7" transform="matrix(1 0 0 -1 18.503 263.817)" overflow="visible"/><use xlink:href="#ball" width="14" height="14" x="-7" y="-7" transform="matrix(1 0 0 -1 223.67 332.417)" overflow="visible"/></g><g id="o-symbol"><path class="st0" d="M86.7 150.3l68.4-22.7 68.3 22.7v91.1l-68.3 22.8-68.4-22.8z"/><path class="st0" d="M223.4 150.4l-68.3 22.8-68.4-22.8M86.7 241.5l68.4-22.8 68.3 22.8M155.1 173.1v91.1"/><path class="st0" d="M86.7 241.4l68.4-22.8 68.3 22.8v91.1l-68.3 22.7-68.4-22.7z"/><path class="st0" d="M223.4 241.4l-68.3 22.8-68.4-22.8M86.7 332.5l68.4-22.8 68.3 22.8M155.1 264.1v91.1M87 59.2l68.3-22.8 68.4 22.8v91.1L155.3 173 87 150.3z"/><path class="st0" d="M223.7 59.2L155.3 82 87 59.2M87 150.3l68.3-22.8 68.4 22.8M155.3 81.9V173"/><path class="st0" d="M18.5 127.4l68.3-22.8 68.4 22.8v91.1l-68.4 22.8-68.3-22.8z"/><path class="st0" d="M155.2 127.4l-68.4 22.8-68.3-22.8M18.5 218.5l68.3-22.7 68.4 22.7M86.8 150.2v91.1"/><path class="st0" d="M18.5 218.5l68.3-22.8 68.4 22.8v91.1l-68.4 22.8-68.3-22.8z"/><path class="st0" d="M155.2 218.5l-68.4 22.8-68.3-22.8M18.5 309.6l68.3-22.7 68.4 22.7M86.8 241.3v91.1M18.5 36.3l68.3-22.8 68.4 22.8v91.1l-68.4 22.8-68.3-22.8z"/><path class="st0" d="M155.2 36.3L86.8 59.1 18.5 36.3M18.5 127.4l68.3-22.7 68.4 22.7M86.8 13.5v136.7"/><use xlink:href="#ball" width="14" height="14" x="-7" y="-7" transform="matrix(1 0 0 -1 86.83 13.506)" overflow="visible"/><use xlink:href="#ball" width="14" height="14" x="-7" y="-7" transform="matrix(1 0 0 -1 18.503 36.28)" overflow="visible"/><use xlink:href="#ball" width="14" height="14" x="-7" y="-7" transform="matrix(1 0 0 -1 155.28 36.59)" overflow="visible"/><use xlink:href="#ball" width="14" height="14" x="-7" y="-7" transform="matrix(1 0 0 -1 86.953 59.365)" overflow="visible"/><use xlink:href="#ball" width="14" height="14" x="-7" y="-7" transform="matrix(1 0 0 -1 223.67 59.15)" overflow="visible"/><use xlink:href="#ball" width="14" height="14" x="-7" y="-7" transform="matrix(1 0 0 -1 155.345 81.927)" overflow="visible"/><use xlink:href="#ball" width="14" height="14" x="-7" y="-7" transform="matrix(1 0 0 -1 86.83 104.488)" overflow="visible"/><use xlink:href="#ball" width="14" height="14" x="-7" y="-7" transform="matrix(1 0 0 -1 18.503 127.263)" overflow="visible"/><use xlink:href="#ball" width="14" height="14" x="-7" y="-7" transform="matrix(1 0 0 -1 155.28 127.572)" overflow="visible"/><use xlink:href="#ball" width="14" height="14" x="-7" y="-7" transform="matrix(1 0 0 -1 86.953 150.347)" overflow="visible"/><use xlink:href="#ball" width="14" height="14" x="-7" y="-7" transform="matrix(1 0 0 -1 223.67 150.133)" overflow="visible"/><use xlink:href="#ball" width="14" height="14" x="-7" y="-7" transform="matrix(1 0 0 -1 155.345 172.91)" overflow="visible"/><use xlink:href="#ball" width="14" height="14" x="-7" y="-7" transform="matrix(1 0 0 -1 86.83 195.636)" overflow="visible"/><use xlink:href="#ball" width="14" height="14" x="-7" y="-7" transform="matrix(1 0 0 -1 18.503 218.412)" overflow="visible"/><use xlink:href="#ball" width="14" height="14" x="-7" y="-7" transform="matrix(1 0 0 -1 155.28 218.72)" overflow="visible"/><use xlink:href="#ball" width="14" height="14" x="-7" y="-7" transform="matrix(1 0 0 -1 86.953 241.496)" overflow="visible"/><use xlink:href="#ball" width="14" height="14" x="-7" y="-7" transform="matrix(1 0 0 -1 223.67 241.282)" overflow="visible"/><use xlink:href="#ball" width="14" height="14" x="-7" y="-7" transform="matrix(1 0 0 -1 155.345 264.057)" overflow="visible"/><use xlink:href="#ball" width="14" height="14" x="-7" y="-7" transform="matrix(1 0 0 -1 86.83 287.506)" overflow="visible"/><use xlink:href="#ball" width="14" height="14" x="-7" y="-7" transform="matrix(1 0 0 -1 18.503 310.28)" overflow="visible"/><use xlink:href="#ball" width="14" height="14" x="-7" y="-7" transform="matrix(1 0 0 -1 155.28 310.59)" overflow="visible"/><use xlink:href="#ball" width="14" height="14" x="-7" y="-7" transform="matrix(1 0 0 -1 86.953 333.365)" overflow="visible"/><use xlink:href="#ball" width="14" height="14" x="-7" y="-7" transform="matrix(1 0 0 -1 223.67 333.15)" overflow="visible"/><use xlink:href="#ball" width="14" height="14" x="-7" y="-7" transform="matrix(1 0 0 -1 155.345 355.927)" overflow="visible"/></g><g id="t-symbol"><path class="st0" d="M86.7 150.3l68.4-22.7 68.3 22.7v91.1l-68.3 22.8-68.4-22.8z"/><path class="st0" d="M223.4 150.4l-68.3 22.8-68.4-22.8M86.7 241.5l68.4-22.8 68.3 22.8M155.1 173.1v91.1"/><path class="st0" d="M18.5 127.4l68.3-22.8 68.4 22.8v91.1l-68.4 22.8-68.3-22.8z"/><path class="st0" d="M155.2 127.4l-68.4 22.8-68.3-22.8M18.5 218.5l68.3-22.7 68.4 22.7M86.8 150.2v91.1"/><path class="st0" d="M18.5 218.5l68.3-22.8 68.4 22.8v91.1l-68.4 22.8-68.3-22.8z"/><path class="st0" d="M155.2 218.5l-68.4 22.8-68.3-22.8M18.5 309.6l68.3-22.7 68.4 22.7M86.8 241.3v91.1M18.5 36.3l68.3-22.8 68.4 22.8v91.1l-68.4 22.8-68.3-22.8z"/><path class="st0" d="M155.2 36.3L86.8 59.1 18.5 36.3M18.5 127.4l68.3-22.7 68.4 22.7M86.8 13.5v136.7"/><use xlink:href="#ball" width="14" height="14" x="-7" y="-7" transform="matrix(1 0 0 -1 18.516 36.256)" overflow="visible"/><use xlink:href="#ball" width="14" height="14" x="-7" y="-7" transform="matrix(1 0 0 -1 86.83 59.068)" overflow="visible"/><use xlink:href="#ball" width="14" height="14" x="-7" y="-7" transform="matrix(1 0 0 -1 86.83 13.506)" overflow="visible"/><use xlink:href="#ball" width="14" height="14" x="-7" y="-7" transform="matrix(1 0 0 -1 155.162 36.256)" overflow="visible"/><use xlink:href="#ball" width="14" height="14" x="-7" y="-7" transform="matrix(1 0 0 -1 18.516 127.11)" overflow="visible"/><use xlink:href="#ball" width="14" height="14" x="-7" y="-7" transform="matrix(1 0 0 -1 86.83 149.923)" overflow="visible"/><use xlink:href="#ball" width="14" height="14" x="-7" y="-7" transform="matrix(1 0 0 -1 86.83 104.36)" overflow="visible"/><use xlink:href="#ball" width="14" height="14" x="-7" y="-7" transform="matrix(1 0 0 -1 155.162 127.11)" overflow="visible"/><use xlink:href="#ball" width="14" height="14" x="-7" y="-7" transform="matrix(1 0 0 -1 18.516 218.36)" overflow="visible"/><use xlink:href="#ball" width="14" height="14" x="-7" y="-7" transform="matrix(1 0 0 -1 86.83 241.173)" overflow="visible"/><use xlink:href="#ball" width="14" height="14" x="-7" y="-7" transform="matrix(1 0 0 -1 86.83 195.61)" overflow="visible"/><use xlink:href="#ball" width="14" height="14" x="-7" y="-7" transform="matrix(1 0 0 -1 155.162 218.36)" overflow="visible"/><use xlink:href="#ball" width="14" height="14" x="-7" y="-7" transform="matrix(1 0 0 -1 155.08 172.923)" overflow="visible"/><use xlink:href="#ball" width="14" height="14" x="-7" y="-7" transform="matrix(1 0 0 -1 223.412 150.11)" overflow="visible"/><use xlink:href="#ball" width="14" height="14" x="-7" y="-7" transform="matrix(1 0 0 -1 155.08 264.173)" overflow="visible"/><use xlink:href="#ball" width="14" height="14" x="-7" y="-7" transform="matrix(1 0 0 -1 223.412 241.36)" overflow="visible"/><use xlink:href="#ball" width="14" height="14" x="-7" y="-7" transform="matrix(1 0 0 -1 18.516 309.11)" overflow="visible"/><use xlink:href="#ball" width="14" height="14" x="-7" y="-7" transform="matrix(1 0 0 -1 86.83 331.923)" overflow="visible"/><use xlink:href="#ball" width="14" height="14" x="-7" y="-7" transform="matrix(1 0 0 -1 86.83 286.36)" overflow="visible"/><use xlink:href="#ball" width="14" height="14" x="-7" y="-7" transform="matrix(1 0 0 -1 155.162 309.11)" overflow="visible"/></g><g id="i-symbol"><path class="st0" d="M87.4 150l68.3-22.8 68.4 22.8v91.1l-68.4 22.8-68.3-22.8z"/><path class="st0" d="M224.1 150l-68.4 22.8L87.4 150M87.4 241.1l68.3-22.8 68.4 22.8M155.7 172.8v91.1"/><path class="st0" d="M87.4 241.1l68.3-22.8 68.4 22.8v91.1L155.7 355l-68.3-22.8z"/><path class="st0" d="M224.1 241.1l-68.4 22.8-68.3-22.8M87.4 332.2l68.3-22.7 68.4 22.7M155.7 263.9V355M87.4 58.9l68.3-22.8 68.4 22.8V150l-68.4 22.8L87.4 150z"/><path class="st0" d="M224.1 58.9l-68.4 22.8-68.3-22.8M87.4 150l68.3-22.8 68.4 22.8M155.7 35.9v136.9"/><use xlink:href="#ball" width="14" height="14" x="-7" y="-7" transform="matrix(1 0 0 -1 87.467 58.673)" overflow="visible"/><use xlink:href="#ball" width="14" height="14" x="-7" y="-7" transform="matrix(1 0 0 -1 155.78 81.486)" overflow="visible"/><use xlink:href="#ball" width="14" height="14" x="-7" y="-7" transform="matrix(1 0 0 -1 155.78 35.923)" overflow="visible"/><use xlink:href="#ball" width="14" height="14" x="-7" y="-7" transform="matrix(1 0 0 -1 224.113 58.673)" overflow="visible"/><use xlink:href="#ball" width="14" height="14" x="-7" y="-7" transform="matrix(1 0 0 -1 87.467 149.84)" overflow="visible"/><use xlink:href="#ball" width="14" height="14" x="-7" y="-7" transform="matrix(1 0 0 -1 155.78 172.653)" overflow="visible"/><use xlink:href="#ball" width="14" height="14" x="-7" y="-7" transform="matrix(1 0 0 -1 155.78 127.09)" overflow="visible"/><use xlink:href="#ball" width="14" height="14" x="-7" y="-7" transform="matrix(1 0 0 -1 224.113 149.84)" overflow="visible"/><use xlink:href="#ball" width="14" height="14" x="-7" y="-7" transform="matrix(1 0 0 -1 87.467 240.944)" overflow="visible"/><use xlink:href="#ball" width="14" height="14" x="-7" y="-7" transform="matrix(1 0 0 -1 155.78 263.757)" overflow="visible"/><use xlink:href="#ball" width="14" height="14" x="-7" y="-7" transform="matrix(1 0 0 -1 155.78 218.194)" overflow="visible"/><use xlink:href="#ball" width="14" height="14" x="-7" y="-7" transform="matrix(1 0 0 -1 224.113 240.944)" overflow="visible"/><use xlink:href="#ball" width="14" height="14" x="-7" y="-7" transform="matrix(1 0 0 -1 87.467 331.944)" overflow="visible"/><use xlink:href="#ball" width="14" height="14" x="-7" y="-7" transform="matrix(1 0 0 -1 155.78 354.757)" overflow="visible"/><use xlink:href="#ball" width="14" height="14" x="-7" y="-7" transform="matrix(1 0 0 -1 155.78 309.194)" overflow="visible"/><use xlink:href="#ball" width="14" height="14" x="-7" y="-7" transform="matrix(1 0 0 -1 224.113 331.944)" overflow="visible"/></g><g id="d-symbol"><path class="st0" d="M87.4 150l68.3-22.8 68.4 22.8v91.1l-68.4 22.8-68.3-22.8z"/><path class="st0" d="M224.1 150l-68.4 22.8L87.4 150M87.4 241.1l68.3-22.8 68.4 22.8M155.7 172.8v91.1"/><path class="st0" d="M87.4 241.1l68.3-22.8 68.4 22.8v91.1L155.7 355l-68.3-22.8z"/><path class="st0" d="M224.1 241.1l-68.4 22.8-68.3-22.8M87.4 332.2l68.3-22.7 68.4 22.7M155.7 263.9V355M87.4 58.9l68.3-22.8 68.4 22.8V150l-68.4 22.8L87.4 150z"/><path class="st0" d="M224.1 58.9l-68.4 22.8-68.3-22.8M87.4 150l68.3-22.8 68.4 22.8M155.7 35.9v136.9"/><use xlink:href="#ball" width="14" height="14" x="-7" y="-7" transform="matrix(1 0 0 -1 87.467 58.673)" overflow="visible"/><use xlink:href="#ball" width="14" height="14" x="-7" y="-7" transform="matrix(1 0 0 -1 155.78 81.486)" overflow="visible"/><use xlink:href="#ball" width="14" height="14" x="-7" y="-7" transform="matrix(1 0 0 -1 155.78 35.923)" overflow="visible"/><use xlink:href="#ball" width="14" height="14" x="-7" y="-7" transform="matrix(1 0 0 -1 224.113 58.673)" overflow="visible"/><use xlink:href="#ball" width="14" height="14" x="-7" y="-7" transform="matrix(1 0 0 -1 87.467 149.84)" overflow="visible"/><use xlink:href="#ball" width="14" height="14" x="-7" y="-7" transform="matrix(1 0 0 -1 155.78 172.653)" overflow="visible"/><use xlink:href="#ball" width="14" height="14" x="-7" y="-7" transform="matrix(1 0 0 -1 155.78 127.09)" overflow="visible"/><use xlink:href="#ball" width="14" height="14" x="-7" y="-7" transform="matrix(1 0 0 -1 224.113 149.84)" overflow="visible"/><use xlink:href="#ball" width="14" height="14" x="-7" y="-7" transform="matrix(1 0 0 -1 87.467 240.944)" overflow="visible"/><use xlink:href="#ball" width="14" height="14" x="-7" y="-7" transform="matrix(1 0 0 -1 155.78 263.757)" overflow="visible"/><use xlink:href="#ball" width="14" height="14" x="-7" y="-7" transform="matrix(1 0 0 -1 155.78 218.194)" overflow="visible"/><use xlink:href="#ball" width="14" height="14" x="-7" y="-7" transform="matrix(1 0 0 -1 224.113 240.944)" overflow="visible"/><use xlink:href="#ball" width="14" height="14" x="-7" y="-7" transform="matrix(1 0 0 -1 87.467 331.944)" overflow="visible"/><use xlink:href="#ball" width="14" height="14" x="-7" y="-7" transform="matrix(1 0 0 -1 155.78 354.757)" overflow="visible"/><use xlink:href="#ball" width="14" height="14" x="-7" y="-7" transform="matrix(1 0 0 -1 155.78 309.194)" overflow="visible"/><use xlink:href="#ball" width="14" height="14" x="-7" y="-7" transform="matrix(1 0 0 -1 224.113 331.944)" overflow="visible"/><g><path class="st0" d="M19 127.1l68.3-22.7 68.3 22.7v91.1L87.3 241 19 218.2z"/><path class="st0" d="M155.6 127.2L87.3 150 19 127.2M19 218.3l68.3-22.8 68.3 22.8M87.3 149.9V241"/><g><path class="st0" d="M19 218.2l68.3-22.7 68.3 22.7v91.1l-68.3 22.8L19 309.3z"/><path class="st0" d="M155.6 218.3l-68.3 22.8L19 218.3M19 309.4l68.3-22.8 68.3 22.8M87.3 241v91.1"/></g></g><use xlink:href="#ball" width="14" height="14" x="-7" y="-7" transform="matrix(1 0 0 -1 155.655 35.837)" overflow="visible"/><use xlink:href="#ball" width="14" height="14" x="-7" y="-7" transform="matrix(1 0 0 -1 19.01 127.004)" overflow="visible"/><use xlink:href="#ball" width="14" height="14" x="-7" y="-7" transform="matrix(1 0 0 -1 155.655 127.004)" overflow="visible"/><use xlink:href="#ball" width="14" height="14" x="-7" y="-7" transform="matrix(1 0 0 -1 19.01 218.108)" overflow="visible"/><use xlink:href="#ball" width="14" height="14" x="-7" y="-7" transform="matrix(1 0 0 -1 87.322 195.358)" overflow="visible"/><use xlink:href="#ball" width="14" height="14" x="-7" y="-7" transform="matrix(1 0 0 -1 155.655 218.108)" overflow="visible"/><use xlink:href="#ball" width="14" height="14" x="-7" y="-7" transform="matrix(1 0 0 -1 19.01 309.108)" overflow="visible"/><use xlink:href="#ball" width="14" height="14" x="-7" y="-7" transform="matrix(1 0 0 -1 87.335 286.38)" overflow="visible"/><use xlink:href="#ball" width="14" height="14" x="-7" y="-7" transform="matrix(1 0 0 -1 155.655 309.108)" overflow="visible"/></g></svg>